# Blender v2.80 (sub 75) OBJ File: ''
# www.blender.org
mtllib boid.mtl
o Cube_Cube.001
v 0.000000 1.000000 0.000000
v -0.300000 0.000000 0.000000
v 0.300000 0.000000 0.000000
v 0.000000 0.300000 0.100000
v 0.000000 0.300000 -0.100000
vt 0.000000 0.000000
vt 0.000000 0.000000
vt 0.000000 0.000000
vt 0.000000 0.000000
vt 0.000000 0.000000
vn 0.4264 0.1279 0.8954
vn -0.4264 0.1279 -0.8954
vn 0.7071 -0.7071 0.0000
vn -0.7071 -0.7071 0.0000
vn -0.4264 0.1279 0.8954
vn 0.4264 0.1279 -0.8954
usemtl None
s off
f 3/1/1 1/2/1 4/3/1
f 2/4/2 1/2/2 5/5/2
f 4/3/3 2/4/3 5/5/3
f 3/1/4 4/3/4 5/5/4
f 2/4/5 4/3/5 1/2/5
f 5/5/6 1/2/6 3/1/6
