# Blender v2.80 (sub 75) OBJ File: ''
# www.blender.org
mtllib circle.mtl
o Circle
v 0.000000 0.000000 -1.000000
v -0.195090 0.000000 -0.980785
v -0.382683 0.000000 -0.923880
v -0.555570 0.000000 -0.831470
v -0.707107 0.000000 -0.707107
v -0.831470 0.000000 -0.555570
v -0.923880 0.000000 -0.382683
v -0.980785 0.000000 -0.195090
v -1.000000 0.000000 -0.000000
v -0.980785 0.000000 0.195090
v -0.923880 0.000000 0.382683
v -0.831470 0.000000 0.555570
v -0.707107 0.000000 0.707107
v -0.555570 0.000000 0.831470
v -0.382683 0.000000 0.923880
v -0.195090 0.000000 0.980785
v 0.000000 0.000000 1.000000
v 0.195091 0.000000 0.980785
v 0.382684 0.000000 0.923879
v 0.555571 0.000000 0.831469
v 0.707107 0.000000 0.707106
v 0.831470 0.000000 0.555570
v 0.923880 0.000000 0.382683
v 0.980785 0.000000 0.195089
v 1.000000 0.000000 -0.000001
v 0.980785 0.000000 -0.195091
v 0.923879 0.000000 -0.382684
v 0.831469 0.000000 -0.555571
v 0.707106 0.000000 -0.707108
v 0.555569 0.000000 -0.831470
v 0.382682 0.000000 -0.923880
v 0.195089 0.000000 -0.980786
vt 0.000000 0.000000
vt 0.000000 0.000000
vt 0.000000 0.000000
vt 0.000000 0.000000
vt 0.000000 0.000000
vt 0.000000 0.000000
vt 0.000000 0.000000
vt 0.000000 0.000000
vt 0.000000 0.000000
vt 0.000000 0.000000
vt 0.000000 0.000000
vt 0.000000 0.000000
vt 0.000000 0.000000
vt 0.000000 0.000000
vt 0.000000 0.000000
vt 0.000000 0.000000
vt 0.000000 0.000000
vt 0.000000 0.000000
vt 0.000000 0.000000
vt 0.000000 0.000000
vt 0.000000 0.000000
vt 0.000000 0.000000
vt 0.000000 0.000000
vt 0.000000 0.000000
vt 0.000000 0.000000
vt 0.000000 0.000000
vt 0.000000 0.000000
vt 0.000000 0.000000
vt 0.000000 0.000000
vt 0.000000 0.000000
vt 0.000000 0.000000
vt 0.000000 0.000000
vn 0.0000 1.0000 0.0000
usemtl None
s off
f 17/1/1 25/2/1 1/3/1
f 1/3/1 2/4/1 3/5/1
f 3/5/1 4/6/1 5/7/1
f 5/7/1 6/8/1 7/9/1
f 7/9/1 8/10/1 9/11/1
f 9/11/1 10/12/1 11/13/1
f 11/13/1 12/14/1 13/15/1
f 13/15/1 14/16/1 15/17/1
f 15/17/1 16/18/1 17/1/1
f 17/1/1 18/19/1 19/20/1
f 19/20/1 20/21/1 21/22/1
f 21/22/1 22/23/1 23/24/1
f 23/24/1 24/25/1 25/2/1
f 25/2/1 26/26/1 27/27/1
f 27/27/1 28/28/1 29/29/1
f 29/29/1 30/30/1 31/31/1
f 31/31/1 32/32/1 1/3/1
f 1/3/1 3/5/1 5/7/1
f 5/7/1 7/9/1 9/11/1
f 9/11/1 11/13/1 13/15/1
f 13/15/1 15/17/1 17/1/1
f 17/1/1 19/20/1 21/22/1
f 21/22/1 23/24/1 25/2/1
f 25/2/1 27/27/1 29/29/1
f 29/29/1 31/31/1 1/3/1
f 1/3/1 5/7/1 9/11/1
f 9/11/1 13/15/1 17/1/1
f 17/1/1 21/22/1 25/2/1
f 25/2/1 29/29/1 1/3/1
f 1/3/1 9/11/1 17/1/1
